<?xml version="1.0" encoding="utf-8"?>
<!-- Generator: Adobe Illustrator 26.0.1, SVG Export Plug-In . SVG Version: 6.00 Build 0)  -->
<svg version="1.1" id="Capa_1" xmlns="http://www.w3.org/2000/svg" xmlns:xlink="http://www.w3.org/1999/xlink" x="0px" y="0px"
	 viewBox="0 0 1000 1000" style="enable-background:new 0 0 1000 1000;" xml:space="preserve">
<style type="text/css">
	.st0{clip-path:url(#SVGID_00000047771767688684303490000001213939069434900873_);}
	.st1{clip-path:url(#SVGID_00000176735212542384255940000013801590195716830102_);}
	.st2{font-family:'ArialMT';}
	.st3{font-size:12px;}
	.st4{enable-background:new    ;}
	.st5{font-size:18px;}
	.st6{fill:none;stroke:#000000;stroke-miterlimit:10;}
</style>
<g id="_x3C_Archivo_enlazado_x3E_">
	<defs>
		<rect id="SVGID_1_" x="124.9" width="750.2" height="994.4"/>
	</defs>
	<clipPath id="SVGID_00000160902087846250725670000015614448095925530258_">
		<use xlink:href="#SVGID_1_"  style="overflow:visible;"/>
	</clipPath>
	<g style="clip-path:url(#SVGID_00000160902087846250725670000015614448095925530258_);">
		<defs>
			<path id="SVGID_00000103241959971318004160000007032769737792812953_" d="M646.6,209.1L594.7,11l128.3-5.3
				c0,0-31.8,315.6,51.3,243.3s83.1-72.3,83.1-72.3l36.5-5.2l0.2,82.1l-33.1,7.8l-63.5,68.2l-47.6,119.9l4.3,56.8l-13.4,63.7
				l-37.3,89.9l17.1,219.2c0,0,110.5,109.9,110.5,112.3c0,2.4-559.4,0-559.4,0l21.4-50l106.3-100.5L522,718.6L414.5,575.2L333.9,604
				L195.2,494.7l-113.6-144l29.9-40l152.7,141l98.3,10l-47.9-39.4"/>
		</defs>
		<clipPath id="SVGID_00000121268925007770544990000017618638333600633272_">
			<use xlink:href="#SVGID_00000103241959971318004160000007032769737792812953_"  style="display:none;overflow:visible;"/>
		</clipPath>
		<g id="file/orangutan.jpg" style="clip-path:url(#SVGID_00000121268925007770544990000017618638333600633272_);">
			<g id="Ilustracion_x5F_Principal">
				<g id="Ilustracion_x5F_Principal_2_">
					<g id="Ilustracion_x5F_Principal_3_">
						<g id="Ilustracion_x5F_Principal_copia">
							<g id="Ilustracion_x5F_Principal_copia_2_">
								<g id="Ilustracion_x5F_Principal_1_">
									<g id="Ilustracion_x5F_Principal_5_">
										<g id="Ilustracion_x5F_Principal_6_">
											<g id="Ilustracion_x5F_Principal_7_">
												<g id="Ilustracion_x5F_Principal_x5F_v02">
													<g id="Ilustracion_x5F_Principal_x5F_v02_2_">

															<image style="overflow:visible;" width="5925" height="4143" id="Ilustracion_x5F_Principal_x5F_v02_00000167394293196717849080000011310463058318390972_" xlink:href="837047AB.jpg"  transform="matrix(0.24 0 0 0.2309 -168.8947 23.1582)">
														</image>
													</g>
												</g>
											</g>
										</g>
									</g>
								</g>
							</g>
						</g>
					</g>
				</g>
			</g>
		</g>
	</g>
</g>
<g id="su_lomo">
	<text transform="matrix(1 0 0 1 421.0896 88.5117)" class="st2 st3">             </text>
	<text transform="matrix(1 0 0 1 362.3633 195.6167)" class="st4"><tspan x="0" y="0" class="st2 st5">Solo el macho dominante tiene</tspan><tspan x="0" y="21.6" class="st2 st5">protuberancias laterales que se</tspan><tspan x="0" y="43.2" class="st2 st5">denominan bridas</tspan></text>
	<text transform="matrix(1 0 0 1 586.5964 88.5117)" class="st2 st3">             </text>
	<text transform="matrix(1 0 0 1 543.4496 110.1118)" class="st2 st3">         </text>
	<line class="st6" x1="473.4" y1="245.4" x2="473.4" y2="393.4"/>
</g>
<g id="su_vientre">
	<text transform="matrix(1 0 0 1 59.2546 732.9189)" class="st2 st3">             </text>
	<text transform="matrix(1 0 0 1 217.6688 754.519)" class="st2 st3">             </text>
	<text transform="matrix(1 0 0 1 136.8094 776.1189)" class="st2 st3">         </text>
	<polyline class="st6" points="501.3,641 501.3,749 242.8,749 	"/>
</g>
<text transform="matrix(1 0 0 1 760.9407 612.9189)" class="st2 st3">             </text>
<g>
	<line class="st6" x1="750.9" y1="621.8" x2="654" y2="615"/>
	<g>
		<text transform="matrix(1 0 0 1 918.8976 612.9189)" class="st2 st3">          </text>
		<text transform="matrix(1 0 0 1 918.8976 627.3188)" class="st2 st3">   </text>
		<text transform="matrix(1 0 0 1 898.7708 634.519)" class="st2 st3">         </text>
		<text transform="matrix(1 0 0 1 760.7705 621.7603)" class="st2 st5">No tiene cola</text>
	</g>
</g>
<g id="Capa_2">
</g>
<text transform="matrix(1 0 0 1 89.3411 694.9998)" class="st4"><tspan x="0" y="0" class="st2 st5">Ambos sexos tienen un bolsillo</tspan><tspan x="0" y="21.6" class="st2 st5">en la garganta para vocalizar,</tspan><tspan x="0" y="43.2" class="st2 st5">en el del macho es más</tspan><tspan x="0" y="64.8" class="st2 st5">prominente.</tspan></text>
</svg>
