<?xml version="1.0" encoding="utf-8"?>
<!-- Generator: Adobe Illustrator 26.0.1, SVG Export Plug-In . SVG Version: 6.00 Build 0)  -->
<svg version="1.1" id="Capa_1" xmlns="http://www.w3.org/2000/svg" xmlns:xlink="http://www.w3.org/1999/xlink" x="0px" y="0px"
	 viewBox="0 0 1000 350" style="enable-background:new 0 0 1000 350;" xml:space="preserve">
<style type="text/css">
	.st0{fill:none;stroke:#BBBBCC;stroke-miterlimit:10;}
	.st1{fill:#1E1E1C;}
	.st2{font-family:'ArialMT';}
	.st3{font-size:18px;}
	.st4{opacity:0;}
	.st5{fill:#807973;}
	.st6{font-size:16px;}
	.st7{fill:#929192;}
	.st8{fill:#E63812;}
</style>
<line class="st0" x1="0" y1="225" x2="1000" y2="225"/>
<line class="st0" x1="0" y1="150" x2="1000" y2="150"/>
<line class="st0" x1="0" y1="75" x2="1000" y2="75"/>
<line class="st0" x1="1" y1="1" x2="1000" y2="1"/>
<line class="st0" x1="0" y1="300" x2="1000" y2="300"/>
<text transform="matrix(0.9839 0 0 1 452.2568 322.3755)" class="st1 st2 st3">Zorzal</text>
<text transform="matrix(0.9839 0 0 1 16.6187 322.3755)" class="st1 st2 st3">Chercán</text>
<text transform="matrix(0.9839 0 0 1 159.7725 322.3755)" class="st1 st2 st3">Gorrión</text>
<text transform="matrix(0.9839 0 0 1 286.8936 322.3755)" class="st1 st2 st3">Chucao</text>
<text transform="matrix(0.9839 0 0 1 581.124 322.3755)" class="st1 st2 st3">Pingüino de Humboldt</text>
<text transform="matrix(0.9839 0 0 1 824.1514 322.3755)" class="st1 st2 st3">Flamenco chileno</text>
<g id="alturas" class="st4">
	<text transform="matrix(0.9839 0 0 1 48.4497 270.3667)" class="st5 st2 st6">11 cm</text>
	<text transform="matrix(0.9839 0 0 1 201.7998 259.5107)" class="st5 st2 st6">16 cm</text>
	<text transform="matrix(0.9839 0 0 1 336.9004 252.5107)" class="st5 st2 st6">19 cm</text>
	<text transform="matrix(0.9839 0 0 1 444.7998 138)" class="st5 st2 st6">25 cm</text>
	<text transform="matrix(0.9839 0 0 1 603.7422 109.5107)" class="st5 st2 st6">38 cm</text>
	<text transform="matrix(0.9839 0 0 1 866.6714 33.7998)" class="st5 st2 st6">110 cm</text>
</g>
<path id="XMLID_52_" class="st7" d="M910.3,208.3c-0.8,4.2-1.6,8.1-2.3,12c-0.2,0.8-0.1,1.7-0.1,2.6c0.1,3.9,0.2,7.8,0.3,11.7
	c0.1,3.1-0.2,6.2,1,9.2c0.4,1,0.3,2.3,0.2,3.5c-0.4,6.9-0.9,13.8-1.1,20.8c-0.1,4.4,0.4,8.9,0.7,13.4c0,0.4,0.1,0.8,0.3,1
	c3.2,4.2,2.3,9.5,3.7,14.2c0.4,1.4-0.2,3.2-0.6,4.8c-0.1,0.3-0.9,0.6-1.4,0.6c-4.2,0.4-8.3,1.3-12.5,0.3c-2.8-0.6-5.6,0.1-8.4,0.9
	c-5.5,1.6-11.1,2.4-16.8,2c-0.4,0-0.7-0.1-1.1-0.2c-1.7-0.5-3.6-0.9-3.8-3c-0.2-2.1,1.5-2.9,3-3.7c2.1-1.1,4.1-2.2,6.2-3.2
	c3.2-1.6,4.3-4.9,6.1-7.6c1.3-2,3.6-3.5,3.7-6.2c0-1.5,0-3.1-0.2-4.6c-0.3-3.3-1.1-6.5-1.1-9.8c0-3.3,0.9-6.6,1.2-9.9
	c0.1-1.2,0.1-2.7-0.5-3.7c-3.2-5.8-3.6-11.9-2.9-18.4c0.6-5.2,0.5-10.4,0.6-15.6c0.1-2.8-0.2-5.7,0-8.5c0.2-3.4-0.5-6.6-1.3-9.9
	c-0.1-0.4-0.3-0.8-0.3-1.3c-0.1-3.5-1.3-6.2-4.1-8.6c-2.9-2.5-4.6-6.3-4.3-10.4c0.1-2.5,0.6-5.1,0.6-7.6c0-2.4-0.3-4.9-0.4-7.3
	c-0.1-7.1,0.1-14.1,0-21.2c-0.1-6.2,1.8-12.1,2.9-18.1c0.2-1.3,0.5-2.5,0.7-3.8c0.2-1.4,0.1-2.7-1.6-3.3c-0.3-0.1-0.7-0.7-0.6-1.1
	c0.2-1.9,0.7-3.9,0.9-5.8c0.6-5.8,0.9-11.6,1.7-17.4c0.6-3.9,0.5-8.3,3.6-11.4c3.5-3.5,6.7-7.5,11.2-9.9c0.5-0.3,0.9-0.7,1.3-1.1
	c1.2-1.1,1.2-1.1,0.3-2.6c1.8-0.8,3.5-1.6,5.5-2.5c-1.1-3.1-0.2-6.8-2.5-9.8c-0.5-0.6-0.2-1.7-0.5-2.5c-0.7-1.9-1.5-3.7-2.1-5.6
	c-0.6-2-1.2-4-1.5-6c-0.4-2.3-0.5-4.6-0.6-6.9c0-0.5,0.3-0.9,0.3-1.4c0.2-1,0.3-2.1,0.5-3.1c0.1-0.6,0.1-1.4,0.4-1.8
	c2.5-2.7,5.2-5,9.2-5.1c2.7-0.1,5.4-0.4,8.1-0.4c3.4,0,7.6,2.9,8.9,7.1c0.8,2.6,0.2,5.5,1.1,7.9c1,2.8-0.4,5.2-0.3,7.8
	c0,0.7-0.3,1.6-0.8,2.2c-2.5,2.7-1.9,8.6-2,12c1.8,0.2,3.4,0.3,5.2,0.5c-0.4,1.3-0.8,2.7-1.3,4.4c3.2,1.8,5.1,1.5,9.8,2.6
	c8.4,0,15.3,12.4,16.4,23.1c0.6,6.2,1.2,12.4,1.7,18.6c0.1,1.6,0.3,3.2,0.5,4.9c-0.7,0.2-1.5,0.4-2.7,0.6c0,3.8,0.3,7.7-0.1,11.6
	c-0.5,4.8-1.3,9.6-2.3,14.4c-0.7,3.4-1.8,6.7-2.8,10c-0.5,1.6-1.5,3-2,4.5c-0.4,1-0.7,2.2-0.6,3.3c0.4,3.5,1.3,7,1.4,10.5
	c0.1,3.5-0.4,7-0.8,10.5c-0.5,5.9-1,11.8-0.3,17.8c0.8,6.8-0.2,13.6-1.3,20.3c-0.5,3-0.6,6.3,0.2,9.2c1.9,7.1,1.7,14.3,1.9,21.4
	c0.2,11.1-0.4,22.3-0.4,33.4c0,2.5,0.8,5,1,7.5c0.3,4,0.3,8,0.6,12c0.1,1.3,0.7,2.6,0.9,3.9c0.5,2.5-0.2,3.9-2.6,4
	c-3.9,0.2-7.8,0.1-11.7-0.1c-1.8-0.1-2.6-1.2-2.7-3.1c-0.3-4-2.4-7.1-5.4-9.7c-0.7-0.6-1.1-1.4-1.5-2.3c-1-2.5-2.2-4.9-2.8-7.5
	c-0.4-1.7,0.1-3.7,0.2-5.6c0.6-6.3,1.1-12.7,1.8-19c0.4-3.9,0.5-7.8,2.4-11.4c0.2-0.4,0.2-1,0.1-1.4c-1.3-5.5-2.1-11.2-3.1-16.7
	c-1.2-6.5-3.7-12.7-5.7-19C912,213,911.2,210.8,910.3,208.3z"/>
<path class="st8" d="M593.3,250c-3.5,4.9-4.4,11.1-2.5,17.1c0.2,2.8,1.6,15.2,8.6,19.9c0.4,0.3,1,0.3,1.4,0.1s0.7-0.7,0.7-1.2
	l-0.1-2.1c2.1,3.4,5.2,7.5,8.5,9.5c0.4,0.3,1,0.2,1.4-0.1c0.4-0.3,0.6-0.8,0.6-1.3l-0.6-3.6c3.1,2.6,8.5,6.4,15.1,7.2
	c0.1,0,0.1,0,0.2,0c0.4,0,0.8-0.2,1.1-0.6c0.3-0.4,0.3-1,0.1-1.4l-0.7-1.3c8.9,2,19.1,3.1,30.4,3.3c0.7,0,1.3-0.6,1.3-1.3
	c0-0.1,0-0.2,0-0.3c0.7,0.2,1.6,0.3,2.5,0.3c1.1,0.8,2.6,1.3,4.2,1.3c7.1,0,11.8,0,11.8,0c0.6,0,1.2,0,1.6-0.1
	c0.2,0.1,0.4,0.1,0.6,0.1c11.3-0.1,21.6-1.2,30.5-3.3l-0.7,1.3c-0.2,0.4-0.2,1,0.1,1.4c0.2,0.4,0.7,0.6,1.1,0.6c0.1,0,0.1,0,0.2,0
	c6.6-0.9,12-4.6,15.1-7.2l-0.6,3.6c-0.1,0.5,0.1,1,0.6,1.3c0.4,0.3,1,0.3,1.4,0.1c3.4-2,6.5-6.1,8.5-9.4l-0.1,2.1
	c0,0.5,0.2,1,0.7,1.2c0.4,0.3,1,0.2,1.4-0.1c7.4-5,8.5-18.6,8.6-20.2c1.8-5.9,0.8-12.1-2.6-16.9c-3.7-5.1-9.7-8.2-16.6-8.7
	c0-0.6,0-1.1,0-1.5l0.7,0.4c0.4,0.2,0.8,0.2,1.2,0s0.7-0.6,0.7-1c1.3-8.6,0.8-16.2,0.1-21.1c0.3,0.4,0.9,0.5,1.4,0.4
	c0.5-0.2,0.9-0.7,0.9-1.2c0.3-23-10.2-39.4-11-40.5c-3.8-7.2-9.2-13.9-15.9-19.8c-2-3.9-4.4-7-6.4-9.2c0.4,0,0.8-0.2,1-0.5
	c0.3-0.4,0.4-1,0.1-1.5c-4-7.2-9.3-10.6-13.5-12.2c0.5-0.1,0.8-0.5,0.9-1c0.1-0.6-0.2-1.1-0.7-1.4c-8-4.2-16-2-18-1.4
	c-2-0.6-10.1-2.8-18,1.4c-0.5,0.3-0.8,0.8-0.7,1.4c0.1,0.5,0.5,0.9,0.9,1c-4.2,1.6-9.4,5-13.5,12.2c-0.3,0.5-0.2,1.1,0.1,1.5
	c0.2,0.3,0.6,0.5,1,0.5c-2.1,2.3-4.6,5.5-6.7,9.7c-5.3,5.3-9.9,11.8-13.7,19.5c-1.3,2.1-11.2,18.4-10.8,40.3c0,0.6,0.4,1.1,0.9,1.2
	c0.3,0.1,0.6,0.1,0.9,0c0.1,0.8,0.1,1.6,0.2,2.4c-0.6,6.2-0.5,12.4,0.4,18.3c0.1,0.4,0.3,0.8,0.7,1c0.2,0.1,0.3,0.1,0.5,0.1
	c0.1,0.3,0.1,0.6,0.2,0.9C603.3,241.6,597,244.8,593.3,250z"/>
<path class="st8" d="M430.7,256.7c-2.6,3.6-3.3,8.3-1.9,12.7c0.1,2.1,1.2,11.3,6.4,14.8c0.3,0.2,0.7,0.2,1,0.1
	c0.3-0.1,0.5-0.5,0.5-0.9l-0.1-1.6c1.6,2.5,3.9,5.6,6.3,7.1c0.3,0.2,0.7,0.1,1-0.1c0.3-0.2,0.4-0.6,0.4-1l-0.4-2.7
	c2.3,1.9,6.3,4.8,11.2,5.4c0.1,0,0.1,0,0.1,0c0.3,0,0.6-0.1,0.8-0.4s0.2-0.7,0.1-1l-0.5-1c6.6,1.5,14.2,2.3,22.6,2.5
	c0.5,0,1-0.4,1-1c0-0.1,0-0.1,0-0.2c0.5,0.1,1.2,0.2,1.9,0.2c0.8,0.6,1.9,1,3.1,1c5.3,0,8.8,0,8.8,0c0.4,0,0.9,0,1.2-0.1
	c0.1,0.1,0.3,0.1,0.4,0.1c8.4-0.1,16.1-0.9,22.7-2.5l-0.5,1c-0.1,0.3-0.1,0.7,0.1,1c0.1,0.3,0.5,0.4,0.8,0.4c0.1,0,0.1,0,0.1,0
	c4.9-0.7,8.9-3.4,11.2-5.4l-0.4,2.7c-0.1,0.4,0.1,0.7,0.4,1c0.3,0.2,0.7,0.2,1,0.1c2.5-1.5,4.8-4.5,6.3-7l-0.1,1.6
	c0,0.4,0.1,0.7,0.5,0.9c0.3,0.2,0.7,0.1,1-0.1c5.5-3.7,6.3-13.8,6.4-15c1.3-4.4,0.6-9-1.9-12.6c-2.8-3.8-7.2-6.1-12.3-6.5
	c0-0.4,0-0.8,0-1.1l0.5,0.3c0.3,0.1,0.6,0.1,0.9,0s0.5-0.4,0.5-0.7c1-6.4,0.6-12,0.1-15.7c0.2,0.3,0.7,0.4,1,0.3
	c0.4-0.1,0.7-0.5,0.7-0.9c0.2-17.1-7.6-29.3-8.2-30.1c-2.8-5.4-6.8-10.3-11.8-14.7c-1.5-2.9-3.3-5.2-4.8-6.8c0.3,0,0.6-0.1,0.7-0.4
	c0.2-0.3,0.3-0.7,0.1-1.1c-3-5.4-6.9-7.9-10-9.1c0.4-0.1,0.6-0.4,0.7-0.7c0.1-0.4-0.1-0.8-0.5-1c-5.9-3.1-11.9-1.5-13.4-1
	c-1.5-0.4-7.5-2.1-13.4,1c-0.4,0.2-0.6,0.6-0.5,1c0.1,0.4,0.4,0.7,0.7,0.7c-3.1,1.2-7,3.7-10,9.1c-0.2,0.4-0.1,0.8,0.1,1.1
	c0.1,0.2,0.4,0.4,0.7,0.4c-1.6,1.7-3.4,4.1-5,7.2c-3.9,3.9-7.4,8.8-10.2,14.5c-1,1.6-8.3,13.7-8,30c0,0.4,0.3,0.8,0.7,0.9
	c0.2,0.1,0.4,0.1,0.7,0c0.1,0.6,0.1,1.2,0.1,1.8c-0.4,4.6-0.4,9.2,0.3,13.6c0.1,0.3,0.2,0.6,0.5,0.7c0.1,0.1,0.2,0.1,0.4,0.1
	c0.1,0.2,0.1,0.4,0.1,0.7C438.2,250.4,433.5,252.8,430.7,256.7z"/>
</svg>
