<?xml version="1.0" encoding="utf-8"?>
<!-- Generator: Adobe Illustrator 26.0.1, SVG Export Plug-In . SVG Version: 6.00 Build 0)  -->
<svg version="1.1" id="Capa_1" xmlns="http://www.w3.org/2000/svg" xmlns:xlink="http://www.w3.org/1999/xlink" x="0px" y="0px"
	 viewBox="0 0 1000 1000" style="enable-background:new 0 0 1000 1000;" xml:space="preserve">
<style type="text/css">
	.st0{font-family:'ArialMT';}
	.st1{font-size:12px;}
	.st2{enable-background:new    ;}
	.st3{font-size:18px;}
	.st4{fill:none;stroke:#000000;stroke-miterlimit:10;}
</style>
<image style="overflow:visible;" width="1000" height="1000" xlink:href="orangutan.jpg" >
</image>
<g id="su_lomo">
	<text transform="matrix(1 0 0 1 407.5442 184.5117)" class="st0 st1">             </text>
	<text transform="matrix(1 0 0 1 573.051 184.5117)" class="st0 st1">             </text>
	<text transform="matrix(1 0 0 1 398.642 171.4045)" class="st2"><tspan x="0" y="0" class="st0 st3">Ambos sexos tienen un bolsillo</tspan><tspan x="0" y="21.6" class="st0 st3">en la garganta para vocalizar,</tspan><tspan x="0" y="43.2" class="st0 st3">en el del macho es más</tspan><tspan x="0" y="64.8" class="st0 st3">prominente</tspan></text>
	<text transform="matrix(1 0 0 1 529.9042 206.1118)" class="st0 st1">         </text>
	<line class="st4" x1="486.5" y1="248" x2="486.5" y2="396"/>
</g>
<g id="su_vientre">
	<text transform="matrix(1 0 0 1 33.5042 591.9189)" class="st0 st1">             </text>
	<text transform="matrix(1 0 0 1 197.7454 591.9189)" class="st0 st1">             </text>
	<text transform="matrix(1 0 0 1 44.4382 634.8512)" class="st2"><tspan x="0" y="0" class="st0 st3">Ambos sexos tienen un bolsillo</tspan><tspan x="0" y="21.6" class="st0 st3">en la garganta para vocalizar,</tspan><tspan x="0" y="43.2" class="st0 st3">en el del macho es más</tspan><tspan x="0" y="64.8" class="st0 st3">prominente</tspan></text>
	<text transform="matrix(1 0 0 1 191.9183 613.519)" class="st0 st1">             </text>
	<text transform="matrix(1 0 0 1 111.059 635.1189)" class="st0 st1">         </text>
	<polyline class="st4" points="475.6,500 475.6,608 217.1,608 	"/>
</g>
<text transform="matrix(1 0 0 1 760.9407 612.9189)" class="st0 st1">             </text>
<g>
	<g>
		<text transform="matrix(1 0 0 1 896.1392 699.1953)" class="st0 st1">          </text>
		<text transform="matrix(1 0 0 1 896.1392 713.5952)" class="st0 st1">   </text>
		<text transform="matrix(1 0 0 1 876.0123 720.7954)" class="st0 st1">         </text>
		<text transform="matrix(1 0 0 1 738.0121 708.0366)" class="st0 st3">No posee cola</text>
	</g>
</g>
<g id="Capa_2">
</g>
</svg>
